# Blender 3.4.1
# www.blender.org
mtllib woodlog.mtl
o Cube
v -1.000000 -1.000001 -4.153336
v -1.000000 0.999999 -4.153336
v 1.000000 -1.000001 -4.153336
v 1.000000 0.999999 -4.153336
v -1.000000 -0.999999 4.113834
v -1.000000 1.000001 4.113834
v 1.000000 -0.999999 4.113834
v 1.000000 1.000001 4.113834
v 0.000000 1.284313 -4.153336
v -1.405212 -0.000001 -4.153336
v 1.428512 -0.000001 -4.153336
v 0.000000 -1.322224 -4.153336
v 0.000000 -0.000001 -4.153336
v 0.000000 -1.322222 4.113834
v 1.428512 0.000001 4.113834
v 0.000000 1.284315 4.113834
v -1.405212 0.000001 4.113834
v 0.534609 1.235609 -4.153336
v -1.299416 0.623828 -4.153336
v 1.287595 0.600920 -4.153336
v -0.597488 -1.277777 -4.153336
v -0.518954 1.207245 -4.153336
v -1.330186 -0.548673 -4.153336
v 1.334453 -0.576980 -4.153336
v 0.634982 -1.240824 -4.153336
v -1.299416 0.623830 4.113834
v 1.287595 0.600922 4.113834
v 0.634982 -1.240822 4.113834
v 0.534609 1.235611 4.113834
v -0.597488 -1.277775 4.113834
v 1.334453 -0.576978 4.113834
v -0.518954 1.207247 4.113834
v -1.330186 -0.548671 4.113834
v -0.612039 -0.000001 -4.153336
v 0.583574 -0.000001 -4.153336
v 0.000000 -0.594026 -4.153336
v 0.000000 0.561653 -4.153336
v -0.601303 0.571078 -4.153336
v 0.587070 0.571078 -4.153336
v 0.587070 -0.580557 -4.153336
v -0.601303 -0.580557 -4.153336
v 0.002133 -0.562825 4.113834
v -0.664026 -0.555748 4.113834
v 0.668293 -0.569902 4.113834
v 0.011650 0.000001 4.113834
v -0.696781 0.000001 4.113834
v 0.720081 0.000001 4.113834
v -0.005910 0.612376 4.113834
v 0.640842 0.606649 4.113834
v -0.652663 0.618103 4.113834
vn 0.4517 0.8922 -0.0000
vn 0.0907 0.9959 -0.0000
vn 0.9870 -0.1609 -0.0000
vn 0.7844 -0.6202 -0.0000
vn 0.5507 -0.8347 -0.0000
vn 0.1272 -0.9919 -0.0000
vn -0.9908 -0.1355 -0.0000
vn -0.8071 -0.5904 -0.0000
vn -0.5680 -0.8230 -0.0000
vn -0.0742 -0.9972 -0.0000
vn 0.9736 0.2283 -0.0000
vn 0.8113 0.5847 -0.0000
vn -0.1469 0.9892 -0.0000
vn -0.9859 0.1672 -0.0000
vn -0.7824 0.6228 -0.0000
vn -0.3957 0.9184 -0.0000
vn -0.0000 -0.0000 -1.0000
vn -0.0000 -0.0000 1.0000
vt 0.447452 0.768633
vt 0.955330 0.237691
vt 0.034802 0.768633
vt 0.771576 0.212564
vt 0.372316 0.002003
vt 0.980456 0.053937
vt 0.218060 0.768633
vt 0.604559 0.768633
vt 0.796703 0.028810
vt 0.447452 0.002003
vt 0.800685 0.502051
vt 0.034802 0.002003
vt 0.984438 0.476924
vt 0.372316 0.768633
vt 0.775558 0.318297
vt 0.604559 0.002003
vt 0.218060 0.002003
vt 0.959312 0.293170
vt 0.130485 0.768633
vt 0.758017 0.117115
vt 0.545765 0.768633
vt 0.858362 0.262357
vt 0.703926 0.768633
vt 0.893963 0.002003
vt 0.275387 0.002003
vt 0.997498 0.149862
vt 0.876016 0.133250
vt 0.275387 0.768633
vt 0.758516 0.414222
vt 0.703926 0.002003
vt 0.862051 0.266363
vt 0.130485 0.002003
vt 0.997997 0.381475
vt 0.545765 0.002003
vt 0.897652 0.526717
vt 0.178777 0.768633
vt 0.769209 0.068609
vt 0.600553 0.768633
vt 0.002003 0.768633
vt 0.802376 0.244799
vt 0.646690 0.768633
vt 0.836982 0.007401
vt 0.414852 0.768633
vt 0.222066 0.002003
vt 0.985908 0.204199
vt 0.081835 0.768633
vt 0.758579 0.165763
vt 0.494512 0.768633
vt 0.909715 0.262357
vt 0.410846 0.002003
vt 0.754011 0.768633
vt 0.945792 0.017894
vt 0.334547 0.002003
vt 0.997997 0.090499
vt 0.600553 0.002003
vt 0.002003 0.002003
vt 0.953639 0.509159
vt 0.646690 0.002003
vt 0.919033 0.271761
vt 0.334547 0.768633
vt 0.758018 0.354859
vt 0.178777 0.002003
vt 0.986806 0.332969
vt 0.222066 0.768633
vt 0.414852 0.002003
vt 0.770107 0.468559
vt 0.754011 0.002003
vt 0.410846 0.768633
vt 0.810222 0.282254
vt 0.081835 0.002003
vt 0.997436 0.430123
vt 0.494512 0.002003
vt 0.846299 0.526717
vt 0.868327 0.189483
vt 0.883348 0.079633
vt 0.930593 0.140713
vt 0.824413 0.126194
vt 0.815993 0.181322
vt 0.830923 0.072138
vt 0.936731 0.086606
vt 0.921802 0.195790
vt 0.828261 0.404485
vt 0.837280 0.465601
vt 0.819241 0.343370
vt 0.879852 0.396540
vt 0.888752 0.461629
vt 0.870952 0.331452
vt 0.936336 0.390460
vt 0.927684 0.331110
vt 0.944987 0.449810
s 0
usemtl Wood_Bark
f 18/36/1 8/17/1 4/7/1
f 18/36/2 16/32/2 29/62/2
f 15/30/3 24/51/3 11/23/3
f 31/68/4 3/5/4 24/50/4
f 7/14/5 25/53/5 3/5/5
f 14/28/6 25/53/6 28/60/6
f 23/48/7 17/34/7 10/21/7
f 23/48/8 5/10/8 33/72/8
f 30/65/9 1/1/9 21/43/9
f 21/44/10 14/28/10 30/64/10
f 15/30/11 20/41/11 27/58/11
f 27/58/12 4/8/12 8/16/12
f 9/19/13 32/70/13 16/32/13
f 19/38/14 17/34/14 26/55/14
f 2/3/15 26/56/15 6/12/15
f 22/46/16 6/12/16 32/70/16
f 18/36/1 29/62/1 8/17/1
f 18/36/2 9/19/2 16/32/2
f 15/30/3 31/67/3 24/51/3
f 31/68/4 7/14/4 3/5/4
f 7/14/5 28/60/5 25/53/5
f 14/28/6 12/25/6 25/53/6
f 23/48/7 33/72/7 17/34/7
f 23/48/8 1/1/8 5/10/8
f 30/65/9 5/10/9 1/1/9
f 21/44/10 12/25/10 14/28/10
f 15/30/11 11/23/11 20/41/11
f 27/58/12 20/41/12 4/8/12
f 9/19/13 22/46/13 32/70/13
f 19/38/14 10/21/14 17/34/14
f 2/3/15 19/39/15 26/56/15
f 22/46/16 2/3/16 6/12/16
usemtl Wood_Grain
f 4/9/17 39/79/17 18/37/17
f 18/37/17 37/77/17 9/20/17
f 37/77/17 35/75/17 13/27/17
f 20/42/17 35/75/17 39/79/17
f 35/75/17 24/52/17 40/80/17
f 3/6/17 40/80/17 24/52/17
f 36/76/17 25/54/17 12/26/17
f 13/27/17 40/80/17 36/76/17
f 41/81/17 13/27/17 36/76/17
f 13/27/17 38/78/17 37/77/17
f 34/74/17 19/40/17 38/78/17
f 34/74/17 23/49/17 10/22/17
f 41/81/17 1/2/17 23/49/17
f 38/78/17 2/4/17 22/47/17
f 22/47/17 37/77/17 38/78/17
f 21/45/17 36/76/17 12/26/17
f 7/15/18 44/84/18 28/61/18
f 28/61/18 42/82/18 14/29/18
f 30/66/18 42/82/18 43/83/18
f 5/11/18 43/83/18 33/73/18
f 33/73/18 46/86/18 17/35/18
f 43/83/18 45/85/18 46/86/18
f 44/84/18 45/85/18 42/82/18
f 49/89/18 45/85/18 47/87/18
f 45/85/18 50/90/18 46/86/18
f 26/57/18 46/86/18 50/90/18
f 50/90/18 6/13/18 26/57/18
f 32/71/18 48/88/18 16/33/18
f 29/63/18 48/88/18 49/89/18
f 8/18/18 49/89/18 27/59/18
f 27/59/18 47/87/18 15/31/18
f 47/87/18 31/69/18 15/31/18
f 4/9/17 20/42/17 39/79/17
f 18/37/17 39/79/17 37/77/17
f 37/77/17 39/79/17 35/75/17
f 20/42/17 11/24/17 35/75/17
f 35/75/17 11/24/17 24/52/17
f 3/6/17 25/54/17 40/80/17
f 36/76/17 40/80/17 25/54/17
f 13/27/17 35/75/17 40/80/17
f 41/81/17 34/74/17 13/27/17
f 13/27/17 34/74/17 38/78/17
f 34/74/17 10/22/17 19/40/17
f 34/74/17 41/81/17 23/49/17
f 41/81/17 21/45/17 1/2/17
f 38/78/17 19/40/17 2/4/17
f 22/47/17 9/20/17 37/77/17
f 21/45/17 41/81/17 36/76/17
f 7/15/18 31/69/18 44/84/18
f 28/61/18 44/84/18 42/82/18
f 30/66/18 14/29/18 42/82/18
f 5/11/18 30/66/18 43/83/18
f 33/73/18 43/83/18 46/86/18
f 43/83/18 42/82/18 45/85/18
f 44/84/18 47/87/18 45/85/18
f 49/89/18 48/88/18 45/85/18
f 45/85/18 48/88/18 50/90/18
f 26/57/18 17/35/18 46/86/18
f 50/90/18 32/71/18 6/13/18
f 32/71/18 50/90/18 48/88/18
f 29/63/18 16/33/18 48/88/18
f 8/18/18 29/63/18 49/89/18
f 27/59/18 49/89/18 47/87/18
f 47/87/18 44/84/18 31/69/18
