# Blender v3.4.1 OBJ File: 'log.blend'
# www.blender.org
mtllib Wood Log.mtl
o Cube
v 1.000000 1.000000 -4.153336
v 1.000000 -1.000000 -4.153336
v -1.000000 1.000000 -4.153336
v -1.000000 -1.000000 -4.153336
v 1.000000 1.000000 4.113834
v 1.000000 -1.000000 4.113834
v -1.000000 1.000000 4.113834
v -1.000000 -1.000000 4.113834
v 0.000000 -1.284314 -4.153336
v 1.405212 0.000000 -4.153336
v -1.428512 0.000000 -4.153336
v 0.000000 1.322223 -4.153336
v 0.000000 0.000000 -4.153336
v 0.000000 1.322223 4.113834
v -1.428512 0.000000 4.113834
v 0.000000 -1.284314 4.113834
v 1.405212 0.000000 4.113834
v -0.534609 -1.235610 -4.153336
v 1.299416 -0.623829 -4.153336
v -1.287595 -0.600921 -4.153336
v 0.597488 1.277776 -4.153336
v 0.518954 -1.207246 -4.153336
v 1.330186 0.548672 -4.153336
v -1.334453 0.576979 -4.153336
v -0.634982 1.240823 -4.153336
v 1.299416 -0.623829 4.113834
v -1.287595 -0.600921 4.113834
v -0.634982 1.240823 4.113834
v -0.534609 -1.235610 4.113834
v 0.597488 1.277776 4.113834
v -1.334453 0.576979 4.113834
v 0.518954 -1.207246 4.113834
v 1.330186 0.548672 4.113834
v 0.612039 0.000000 -4.153336
v -0.583574 0.000000 -4.153336
v 0.000000 0.594025 -4.153336
v 0.000000 -0.561654 -4.153336
v 0.601303 -0.571079 -4.153336
v -0.587070 -0.571079 -4.153336
v -0.587070 0.580556 -4.153336
v 0.601303 0.580556 -4.153336
v -0.002133 0.562826 4.113834
v 0.664026 0.555749 4.113834
v -0.668293 0.569903 4.113834
v -0.011650 0.000000 4.113834
v 0.696781 0.000000 4.113834
v -0.720081 0.000000 4.113834
v 0.005910 -0.612375 4.113834
v -0.640842 -0.606648 4.113834
v 0.652663 -0.618102 4.113834
vt 0.729867 0.880681
vt 0.791843 0.517690
vt 0.793843 0.880681
vt 0.675794 0.517690
vt 0.729867 0.517690
vt 0.923545 0.517690
vt 0.999913 0.880681
vt 0.923545 0.880681
vt 0.226227 0.880681
vt 0.163464 0.517690
vt 0.226227 0.517690
vt 0.163464 0.880681
vt 0.105491 0.517690
vt 0.046546 0.880681
vt 0.105491 0.880681
vt 0.346160 0.880681
vt 0.416891 0.517690
vt 0.416891 0.880681
vt 0.281161 0.517690
vt 0.346160 0.517690
vt 0.226227 0.517690
vt 0.281161 0.880681
vt 0.226227 0.880681
vt 0.000083 0.517690
vt 0.000083 0.880681
vt 0.858334 0.880681
vt 0.858334 0.517690
vt 0.675794 0.880681
vt 0.627564 0.517690
vt 0.491004 0.880681
vt 0.491004 0.517690
vt 0.560986 0.880681
vt 0.560986 0.517690
vt 0.627564 0.880681
vt 0.999913 0.517690
vt 0.046546 0.517690
vt 0.859812 0.881709
vt 0.713229 0.737030
vt 0.947655 0.737030
vt 0.713229 0.501694
vt 0.998783 0.501694
vt 0.486199 0.737029
vt 0.486199 0.501693
vt 0.713228 0.965836
vt 0.269562 0.965836
vt 0.269562 0.737029
vt 0.167467 0.881709
vt 0.269562 0.501693
vt 0.048179 0.737029
vt 0.000000 0.501693
vt 0.269562 0.303914
vt 0.713229 0.303915
vt 0.486199 0.303914
vt 0.713229 0.040438
vt 0.269562 0.040438
vt 0.486199 0.006720
vt 0.167467 0.117797
vt 0.859813 0.117798
vt 0.947655 0.303915
vt 0.048179 0.303914
vt 0.876379 0.866771
vt 0.708597 0.757465
vt 0.975338 0.757465
vt 0.708597 0.555220
vt 1.000000 0.555220
vt 0.975338 0.363934
vt 0.708597 0.363934
vt 0.876379 0.206009
vt 0.708597 0.114092
vt 0.492404 0.363934
vt 0.492404 0.065873
vt 0.492404 0.555220
vt 0.257954 0.757465
vt 0.492404 0.757465
vt 0.257954 0.363934
vt 0.257954 0.114092
vt 0.109077 0.206009
vt 0.023909 0.363934
vt 0.257954 0.555220
vt 0.000000 0.555220
vt 0.023909 0.757465
vt 0.109077 0.866771
vt 0.257954 0.947261
vt 0.492404 0.989397
vt 0.708597 0.947261
vt 0.486199 1.000000
vn -0.4517 -0.8922 0.0000
vn -0.0907 -0.9959 0.0000
vn -0.9870 0.1609 0.0000
vn -0.7844 0.6202 0.0000
vn -0.5507 0.8347 0.0000
vn -0.1272 0.9919 0.0000
vn 0.9908 0.1355 0.0000
vn 0.8071 0.5904 0.0000
vn 0.5680 0.8230 0.0000
vn 0.0742 0.9972 0.0000
vn -0.9736 -0.2283 0.0000
vn -0.8113 -0.5847 0.0000
vn 0.1469 -0.9892 0.0000
vn 0.9859 -0.1672 0.0000
vn 0.7824 -0.6228 0.0000
vn 0.3957 -0.9184 0.0000
vn 0.0000 0.0000 -1.0000
vn 0.0000 0.0000 1.0000
usemtl Wood_Bark
s off
f 18/1/1 8/2/1 4/3/1
f 18/1/2 16/4/2 29/5/2
f 15/6/3 24/7/3 11/8/3
f 31/9/4 3/10/4 24/11/4
f 7/12/5 25/13/5 3/10/5
f 14/14/6 25/13/6 28/15/6
f 23/16/7 17/17/7 10/18/7
f 23/16/8 5/19/8 33/20/8
f 30/21/9 1/22/9 21/23/9
f 21/24/10 14/14/10 30/25/10
f 15/6/11 20/26/11 27/27/11
f 27/27/12 4/3/12 8/2/12
f 9/28/13 32/29/13 16/4/13
f 19/30/14 17/17/14 26/31/14
f 2/32/15 26/31/15 6/33/15
f 22/34/16 6/33/16 32/29/16
f 18/1/1 29/5/1 8/2/1
f 18/1/2 9/28/2 16/4/2
f 15/6/3 31/35/3 24/7/3
f 31/9/4 7/12/4 3/10/4
f 7/12/5 28/15/5 25/13/5
f 14/14/6 12/36/6 25/13/6
f 23/16/7 33/20/7 17/17/7
f 23/16/8 1/22/8 5/19/8
f 30/21/9 5/19/9 1/22/9
f 21/24/10 12/36/10 14/14/10
f 15/6/11 11/8/11 20/26/11
f 27/27/12 20/26/12 4/3/12
f 9/28/13 22/34/13 32/29/13
f 19/30/14 10/18/14 17/17/14
f 2/32/15 19/30/15 26/31/15
f 22/34/16 2/32/16 6/33/16
usemtl Wood_Grain
f 4/37/17 39/38/17 18/39/17
f 18/39/17 37/40/17 9/41/17
f 37/40/17 35/42/17 13/43/17
f 20/44/17 35/42/17 39/38/17
f 35/42/17 24/45/17 40/46/17
f 3/47/17 40/46/17 24/45/17
f 36/48/17 25/49/17 12/50/17
f 13/43/17 40/46/17 36/48/17
f 41/51/17 13/43/17 36/48/17
f 13/43/17 38/52/17 37/40/17
f 34/53/17 19/54/17 38/52/17
f 34/53/17 23/55/17 10/56/17
f 41/51/17 1/57/17 23/55/17
f 38/52/17 2/58/17 22/59/17
f 22/59/17 37/40/17 38/52/17
f 21/60/17 36/48/17 12/50/17
f 7/61/18 44/62/18 28/63/18
f 28/63/18 42/64/18 14/65/18
f 30/66/18 42/64/18 43/67/18
f 5/68/18 43/67/18 33/69/18
f 33/69/18 46/70/18 17/71/18
f 43/67/18 45/72/18 46/70/18
f 44/62/18 45/72/18 42/64/18
f 49/73/18 45/72/18 47/74/18
f 45/72/18 50/75/18 46/70/18
f 26/76/18 46/70/18 50/75/18
f 50/75/18 6/77/18 26/76/18
f 32/78/18 48/79/18 16/80/18
f 29/81/18 48/79/18 49/73/18
f 8/82/18 49/73/18 27/83/18
f 27/83/18 47/74/18 15/84/18
f 47/74/18 31/85/18 15/84/18
f 4/37/17 20/44/17 39/38/17
f 18/39/17 39/38/17 37/40/17
f 37/40/17 39/38/17 35/42/17
f 20/44/17 11/86/17 35/42/17
f 35/42/17 11/86/17 24/45/17
f 3/47/17 25/49/17 40/46/17
f 36/48/17 40/46/17 25/49/17
f 13/43/17 35/42/17 40/46/17
f 41/51/17 34/53/17 13/43/17
f 13/43/17 34/53/17 38/52/17
f 34/53/17 10/56/17 19/54/17
f 34/53/17 41/51/17 23/55/17
f 41/51/17 21/60/17 1/57/17
f 38/52/17 19/54/17 2/58/17
f 22/59/17 9/41/17 37/40/17
f 21/60/17 41/51/17 36/48/17
f 7/61/18 31/85/18 44/62/18
f 28/63/18 44/62/18 42/64/18
f 30/66/18 14/65/18 42/64/18
f 5/68/18 30/66/18 43/67/18
f 33/69/18 43/67/18 46/70/18
f 43/67/18 42/64/18 45/72/18
f 44/62/18 47/74/18 45/72/18
f 49/73/18 48/79/18 45/72/18
f 45/72/18 48/79/18 50/75/18
f 26/76/18 17/71/18 46/70/18
f 50/75/18 32/78/18 6/77/18
f 32/78/18 50/75/18 48/79/18
f 29/81/18 16/80/18 48/79/18
f 8/82/18 29/81/18 49/73/18
f 27/83/18 49/73/18 47/74/18
f 47/74/18 44/62/18 31/85/18
